<svg width="13" height="14" viewBox="0 0 13 14" fill="none" xmlns="http://www.w3.org/2000/svg">
<path d="M9.36371 1.36532H10.9212C11.2514 1.35948 11.5721 1.47507 11.8227 1.69013C12.0732 1.9052 12.2361 2.20477 12.2804 2.53199V6.61532C12.2361 6.94254 12.0732 7.24211 11.8227 7.45718C11.5721 7.67224 11.2514 7.78783 10.9212 7.78199H9.36371M5.28037 8.94866V11.282C5.28037 11.7461 5.46475 12.1912 5.79294 12.5194C6.12112 12.8476 6.56624 13.032 7.03037 13.032L9.36371 7.78199V1.36532H2.78371C2.50235 1.36214 2.22932 1.46075 2.01493 1.64299C1.80054 1.82522 1.65923 2.07879 1.61704 2.35699L0.812039 7.60699C0.78666 7.7742 0.797938 7.94493 0.845091 8.10734C0.892245 8.26976 0.974146 8.41998 1.08512 8.54761C1.1961 8.67523 1.33349 8.7772 1.48779 8.84645C1.64209 8.9157 1.80959 8.95057 1.97871 8.94866H5.28037Z" stroke="#808080" stroke-linecap="round" stroke-linejoin="round"/>
</svg>
