<svg width="21" height="22" viewBox="0 0 21 22" fill="none" xmlns="http://www.w3.org/2000/svg">
<path d="M8.45239 12.0075C8.84352 12.5335 9.34252 12.9687 9.91556 13.2836C10.4886 13.5986 11.1223 13.7858 11.7736 13.8328C12.4249 13.8797 13.0786 13.7851 13.6904 13.5556C14.3022 13.326 14.8578 12.9668 15.3194 12.5022L18.0517 9.75384C18.8812 8.88992 19.3402 7.73284 19.3298 6.53181C19.3194 5.33078 18.8405 4.1819 17.9962 3.33261C17.1519 2.48332 16.0098 2.00158 14.8158 1.99114C13.6218 1.9807 12.4715 2.44241 11.6127 3.27681L10.0462 4.84339" stroke="#123E23" stroke-width="2.43583" stroke-linecap="round" stroke-linejoin="round"/>
<path d="M12.0954 10.1753C11.7042 9.64934 11.2052 9.21413 10.6322 8.8992C10.0592 8.58428 9.4255 8.397 8.77418 8.35008C8.12287 8.30316 7.46914 8.39769 6.85733 8.62726C6.24553 8.85683 5.68996 9.21607 5.22832 9.68061L2.49607 12.429C1.66656 13.2929 1.20757 14.45 1.21795 15.651C1.22832 16.8521 1.70723 18.0009 2.55154 18.8502C3.39584 19.6995 4.53798 20.1813 5.73195 20.1917C6.92593 20.2021 8.07622 19.7404 8.93507 18.906L10.4925 17.3394" stroke="#123E23" stroke-width="2.43583" stroke-linecap="round" stroke-linejoin="round"/>
</svg>
