<svg width="30" height="30" viewBox="0 0 30 30" fill="none" xmlns="http://www.w3.org/2000/svg">
<path d="M15.289 16.3275C15.9597 16.3275 16.5034 15.7806 16.5034 15.106C16.5034 14.4313 15.9597 13.8845 15.289 13.8845C14.6184 13.8845 14.0747 14.4313 14.0747 15.106C14.0747 15.7806 14.6184 16.3275 15.289 16.3275Z" stroke="#123E23" stroke-width="2.43583" stroke-linecap="round" stroke-linejoin="round"/>
<path d="M15.289 7.77693C15.9597 7.77693 16.5034 7.23005 16.5034 6.55543C16.5034 5.88081 15.9597 5.33392 15.289 5.33392C14.6184 5.33392 14.0747 5.88081 14.0747 6.55543C14.0747 7.23005 14.6184 7.77693 15.289 7.77693Z" stroke="#123E23" stroke-width="2.43583" stroke-linecap="round" stroke-linejoin="round"/>
<path d="M15.289 24.878C15.9597 24.878 16.5034 24.3311 16.5034 23.6565C16.5034 22.9819 15.9597 22.435 15.289 22.435C14.6184 22.435 14.0747 22.9819 14.0747 23.6565C14.0747 24.3311 14.6184 24.878 15.289 24.878Z" stroke="#123E23" stroke-width="2.43583" stroke-linecap="round" stroke-linejoin="round"/>
</svg>
