<svg width="10" height="13" viewBox="0 0 10 13" fill="none" xmlns="http://www.w3.org/2000/svg">
<path d="M5.125 12.5C4.26482 12.5 3.46935 12.2832 2.73858 11.8496C2.00781 11.416 1.43119 10.8242 1.00871 10.0742C0.586238 9.32422 0.375 8.50781 0.375 7.625C0.375 7.28125 0.424479 6.9707 0.523438 6.69336C0.622396 6.41602 0.744191 6.16797 0.888822 5.94922C1.03345 5.73047 1.17808 5.49219 1.32272 5.23438C1.46735 4.97656 1.58914 4.63672 1.6881 4.21484C1.78706 3.79297 1.83654 3.30469 1.83654 2.75C1.83654 2.82812 1.8765 2.9043 1.95643 2.97852C2.03636 3.05273 2.13151 3.12695 2.24189 3.20117C2.35226 3.27539 2.47406 3.40625 2.60727 3.59375C2.74048 3.78125 2.84896 4 2.93269 4.25C3.05449 4.63281 3.2524 4.97852 3.52644 5.28711C3.80048 5.5957 4.08974 5.75 4.39423 5.75C4.79006 5.75 5.1269 5.51953 5.40475 5.05859C5.68259 4.59766 5.88812 3.97656 6.02133 3.19531C6.15455 2.41406 6.22115 1.51562 6.22115 0.5C6.33534 0.84375 6.51042 1.20312 6.74639 1.57812C6.98237 1.95312 7.23167 2.29297 7.49429 2.59766C7.75691 2.90234 8.03285 3.25 8.32212 3.64062C8.61138 4.03125 8.86829 4.41211 9.09285 4.7832C9.31741 5.1543 9.50391 5.58789 9.65234 6.08398C9.80078 6.58008 9.875 7.09375 9.875 7.625C9.875 8.50781 9.66376 9.32422 9.24129 10.0742C8.81881 10.8242 8.24219 11.416 7.51142 11.8496C6.78065 12.2832 5.98518 12.5 5.125 12.5ZM6.58654 5C6.19832 6.0625 5.83293 6.8125 5.49038 7.25C5.34575 7.4375 5.16496 7.60547 4.94802 7.75391C4.73107 7.90234 4.53315 8.02148 4.35427 8.11133C4.17538 8.20117 4.0022 8.30273 3.83474 8.41602C3.66727 8.5293 3.53596 8.67383 3.44081 8.84961C3.34565 9.02539 3.29808 9.24219 3.29808 9.5C3.29808 9.97656 3.47887 10.3457 3.84044 10.6074C4.20202 10.8691 4.63021 11 5.125 11C5.85577 11 6.46474 10.8027 6.95192 10.4082C7.4391 10.0137 7.68269 9.47656 7.68269 8.79688C7.68269 8.27344 7.64083 7.82227 7.55709 7.44336C7.47336 7.06445 7.37821 6.7832 7.27163 6.59961C7.16506 6.41602 7.04327 6.18164 6.90625 5.89648C6.76923 5.61133 6.66266 5.3125 6.58654 5Z" fill="#808080"/>
</svg>
