<svg width="13" height="14" viewBox="0 0 13 14" fill="none" xmlns="http://www.w3.org/2000/svg">
<path d="M3.53044 13.0319H1.78044C1.47102 13.0319 1.17427 12.909 0.955478 12.6902C0.736686 12.4714 0.61377 12.1747 0.61377 11.8652V7.7819C0.61377 7.47248 0.736686 7.17574 0.955478 6.95694C1.17427 6.73815 1.47102 6.61523 1.78044 6.61523H3.53044M7.61377 5.44857V3.11523C7.61377 2.65111 7.4294 2.20599 7.10121 1.8778C6.77302 1.54961 6.3279 1.36523 5.86377 1.36523L3.53044 6.61523V13.0319H10.1104C10.3918 13.0351 10.6648 12.9365 10.8792 12.7542C11.0936 12.572 11.2349 12.3184 11.2771 12.0402L12.0821 6.79023C12.1075 6.62303 12.0962 6.4523 12.0491 6.28988C12.0019 6.12746 11.92 5.97724 11.809 5.84962C11.698 5.722 11.5606 5.62003 11.4064 5.55078C11.2521 5.48153 11.0845 5.44665 10.9154 5.44857H7.61377Z" stroke="#808080" stroke-linecap="round" stroke-linejoin="round"/>
</svg>
