<svg width="30" height="31" viewBox="0 0 30 31" fill="none" xmlns="http://www.w3.org/2000/svg">
<path d="M15 0.5L19.5922 4.41345L25.6066 4.8934L26.0866 10.9078L30 15.5L26.0866 20.0922L25.6066 26.1066L19.5922 26.5866L15 30.5L10.4078 26.5866L4.3934 26.1066L3.91345 20.0922L0 15.5L3.91345 10.9078L4.3934 4.8934L10.4078 4.41345L15 0.5Z" fill="#123E23"/>
<path d="M19.75 22.0625C19.75 20.2676 17.5674 18.8125 14.875 18.8125C12.1826 18.8125 10 20.2676 10 22.0625M14.875 16.375C13.0801 16.375 11.625 14.9199 11.625 13.125C11.625 11.3301 13.0801 9.875 14.875 9.875C16.6699 9.875 18.125 11.3301 18.125 13.125C18.125 14.9199 16.6699 16.375 14.875 16.375Z" stroke="white" stroke-width="2.5" stroke-linecap="round" stroke-linejoin="round"/>
</svg>
